<svg width="25" height="25" viewBox="0 0 25 25" fill="none" xmlns="http://www.w3.org/2000/svg">
<path d="M21.875 25H3.125C1.4 25 0 23.6 0 21.875V3.125C0 1.4 1.4 0 3.125 0H21.875C23.6 0 25 1.4 25 3.125V21.875C25 23.6 23.6 25 21.875 25Z" fill="#001833"/>
<path d="M9.59985 18.8493C15.4936 18.8493 18.7186 13.9618 18.7186 9.73057C18.7186 9.59307 18.7186 9.45557 18.7124 9.31807C19.3374 8.86807 19.8811 8.29932 20.3124 7.65557C19.7374 7.91182 19.1186 8.08057 18.4686 8.16182C19.1311 7.76807 19.6374 7.13682 19.8811 6.38682C19.2624 6.75557 18.5749 7.01807 17.8436 7.16182C17.2561 6.53682 16.4249 6.14932 15.5061 6.14932C13.7374 6.14932 12.2999 7.58682 12.2999 9.35557C12.2999 9.60557 12.3311 9.84932 12.3811 10.0868C9.7186 9.95557 7.3561 8.67432 5.77485 6.73682C5.49985 7.21182 5.3436 7.76182 5.3436 8.34932C5.3436 9.46182 5.91235 10.4431 6.7686 11.0181C6.2436 10.9993 5.74985 10.8556 5.3186 10.6181V10.6618C5.3186 12.2118 6.42485 13.5118 7.88735 13.8056C7.6186 13.8806 7.33735 13.9181 7.0436 13.9181C6.83735 13.9181 6.63735 13.8993 6.4436 13.8618C6.84985 15.1368 8.03735 16.0618 9.43735 16.0868C8.33735 16.9493 6.9561 17.4618 5.4561 17.4618C5.19985 17.4618 4.9436 17.4493 4.6936 17.4181C6.1061 18.3181 7.7936 18.8493 9.59985 18.8493Z" fill="white"/>
</svg>
