<svg width="30" height="30" viewBox="0 0 30 30" fill="none" xmlns="http://www.w3.org/2000/svg">
<g clip-path="url(#clip0)">
<path d="M29.373 7.77993C29.028 6.48911 28.0116 5.47269 26.7208 5.12774C24.381 4.50073 14.9999 4.50073 14.9999 4.50073C14.9999 4.50073 5.61873 4.50073 3.27891 5.12774C1.98838 5.47269 0.971719 6.48911 0.626719 7.77993C0 10.1195 0 15.0008 0 15.0008C0 15.0008 0 19.8821 0.626719 22.2214C0.971719 23.5122 1.98838 24.5289 3.27891 24.8738C5.61873 25.5006 14.9999 25.5006 14.9999 25.5006C14.9999 25.5006 24.381 25.5006 26.7208 24.8738C28.0116 24.5289 29.028 23.5122 29.373 22.2214C30 19.8821 30 15.0008 30 15.0008C30 15.0008 30 10.1195 29.373 7.77993Z" fill="#001833"/>
<path d="M11.9989 19.4994L19.7929 14.9994L11.9989 10.4993V19.4994Z" fill="white"/>
</g>
<defs>
<clipPath id="clip0">
<rect width="30" height="30" fill="white"/>
</clipPath>
</defs>
</svg>
